<svg xmlns="http://www.w3.org/2000/svg" version="1.1" xmlns:xlink="http://www.w3.org/1999/xlink" xmlns:svgjs="http://svgjs.com/svgjs" width="1920" height="1080" preserveAspectRatio="none" viewBox="0 0 1920 1080"><g mask="url(&quot;#SvgjsMask1144&quot;)" fill="none"><rect width="1920" height="1080" x="0" y="0" fill="url(#SvgjsLinearGradient1145)"></rect><path d="M1984 1080L0 1080 L0 836.96Q53.74 794.7, 96 848.44Q112.94 769.38, 192 786.32Q251.04 685.36, 352 744.4Q433.12 729.52, 448 810.64Q510.19 712.83, 608 775.02Q698.15 705.17, 768 795.32Q823.73 691.05, 928 746.78Q1047.55 706.33, 1088 825.87Q1145.98 723.86, 1248 781.84Q1278.9 716.74, 1344 747.64Q1467.62 711.26, 1504 834.88Q1548.29 719.17, 1664 763.46Q1737.56 677.02, 1824 750.57Q1949.3 715.88, 1984 841.18z" fill="#182f5d"></path><path d="M2048 1080L0 1080 L0 859.2Q50.29 813.49, 96 863.78Q162.17 833.95, 192 900.12Q256.23 868.35, 288 932.58Q362.23 846.81, 448 921.04Q488.99 802.03, 608 843.02Q718.38 793.4, 768 903.79Q790.65 830.44, 864 853.1Q936.24 765.34, 1024 837.58Q1105.14 822.73, 1120 903.87Q1192.36 816.23, 1280 888.58Q1345.55 858.13, 1376 923.67Q1412.45 800.12, 1536 836.57Q1625.88 766.45, 1696 856.32Q1767.46 831.79, 1792 903.25Q1848.11 863.36, 1888 919.47Q1979.08 850.55, 2048 941.63z" fill="#25467d"></path><path d="M2016 1080L0 1080 L0 955.33Q64.65 923.99, 96 988.64Q192.85 925.49, 256 1022.33Q277.22 947.55, 352 968.76Q405.95 926.71, 448 980.67Q550.33 923, 608 1025.34Q636.48 893.81, 768 922.29Q822.81 881.1, 864 935.91Q955.88 867.78, 1024 959.66Q1131.07 906.73, 1184 1013.81Q1244.47 914.27, 1344 974.74Q1409.34 880.08, 1504 945.42Q1589.69 935.11, 1600 1020.8Q1653.41 914.21, 1760 967.62Q1823.91 935.53, 1856 999.44Q1928.16 911.6, 2016 983.76z" fill="#356cb1"></path><path d="M2016 1080L0 1080 L0 1084.07Q59.52 1047.59, 96 1107.12Q152.87 1003.99, 256 1060.86Q275.78 984.63, 352 1004.41Q412.97 969.38, 448 1030.35Q543.21 965.56, 608 1060.77Q666.13 958.9, 768 1017.04Q823.23 976.27, 864 1031.5Q977.47 984.97, 1024 1098.45Q1055.66 970.11, 1184 1001.77Q1271.11 928.88, 1344 1015.99Q1440.79 952.78, 1504 1049.58Q1594.33 979.91, 1664 1070.24Q1750.11 996.35, 1824 1082.46Q1843.47 1005.93, 1920 1025.39Q1978.58 987.97, 2016 1046.56z" fill="white"></path></g><defs><mask id="SvgjsMask1144"><rect width="1920" height="1080" fill="#ffffff"></rect></mask><linearGradient x1="10.94%" y1="-19.44%" x2="89.06%" y2="119.44%" gradientUnits="userSpaceOnUse" id="SvgjsLinearGradient1145"><stop stop-color="rgba(69, 111, 232, 1)" offset="0"></stop><stop stop-color="rgba(25, 176, 236, 1)" offset="1"></stop></linearGradient></defs></svg>